<mxfile host="app.diagrams.net" modified="2021-07-18T06:13:52.852Z" agent="5.0 (Windows NT 10.0; Win64; x64) AppleWebKit/537.36 (KHTML, like Gecko) Chrome/91.0.4472.124 Safari/537.36 Edg/91.0.864.70" etag="arRXUw4s0huQsFrzUs74" version="14.9.0" type="github" pages="2">
  <diagram id="RMxHZzYajKLkMi6z7zsE" name="Page-1">
    <mxGraphModel dx="1388" dy="844" grid="1" gridSize="8" guides="1" tooltips="1" connect="1" arrows="1" fold="1" page="1" pageScale="1" pageWidth="850" pageHeight="1100" math="0" shadow="0">
      <root>
        <mxCell id="0" />
        <mxCell id="1" parent="0" />
        <mxCell id="ZXHYO5bJaUdAnhjfQW9v-1" value="Product" style="swimlane;fontStyle=1;align=center;verticalAlign=top;childLayout=stackLayout;horizontal=1;startSize=26;horizontalStack=0;resizeParent=1;resizeParentMax=0;resizeLast=0;collapsible=1;marginBottom=0;" parent="1" vertex="1">
          <mxGeometry x="8" y="656" width="180" height="380" as="geometry" />
        </mxCell>
        <mxCell id="ZXHYO5bJaUdAnhjfQW9v-2" value="+id : int&#xa;&#xa;+name : String&#xa;&#xa;+category : String&#xa;&#xa;+salesPrice : float&#xa;&#xa;+cost : float&#xa;&#xa;+quantiy : int&#xa;&#xa;&#xa;+active : boolean&#xa;" style="text;strokeColor=none;fillColor=none;align=left;verticalAlign=top;spacingLeft=4;spacingRight=4;overflow=hidden;rotatable=0;points=[[0,0.5],[1,0.5]];portConstraint=eastwest;" parent="ZXHYO5bJaUdAnhjfQW9v-1" vertex="1">
          <mxGeometry y="26" width="180" height="214" as="geometry" />
        </mxCell>
        <mxCell id="ZXHYO5bJaUdAnhjfQW9v-3" value="" style="line;strokeWidth=1;fillColor=none;align=left;verticalAlign=middle;spacingTop=-1;spacingLeft=3;spacingRight=3;rotatable=0;labelPosition=right;points=[];portConstraint=eastwest;" parent="ZXHYO5bJaUdAnhjfQW9v-1" vertex="1">
          <mxGeometry y="240" width="180" height="8" as="geometry" />
        </mxCell>
        <mxCell id="ZXHYO5bJaUdAnhjfQW9v-4" value="+getProfitLoss() : float&#xa;&#xa;+activate() : void&#xa;&#xa;+deactivate() : void&#xa;&#xa;+isBelowThreshold() : boolean&#xa;&#xa;" style="text;strokeColor=none;fillColor=none;align=left;verticalAlign=top;spacingLeft=4;spacingRight=4;overflow=hidden;rotatable=0;points=[[0,0.5],[1,0.5]];portConstraint=eastwest;" parent="ZXHYO5bJaUdAnhjfQW9v-1" vertex="1">
          <mxGeometry y="248" width="180" height="132" as="geometry" />
        </mxCell>
        <mxCell id="ZXHYO5bJaUdAnhjfQW9v-6" value="Order" style="swimlane;fontStyle=1;align=center;verticalAlign=top;childLayout=stackLayout;horizontal=1;startSize=26;horizontalStack=0;resizeParent=1;resizeParentMax=0;resizeLast=0;collapsible=1;marginBottom=0;" parent="1" vertex="1">
          <mxGeometry x="296" y="648" width="200" height="250" as="geometry" />
        </mxCell>
        <mxCell id="ZXHYO5bJaUdAnhjfQW9v-7" value="+id : int&#xa;&#xa;+vendor : Vendor&#xa;&#xa;+date : String&#xa;&#xa;+oderedProduct : Product&#xa;&#xa;+orderedQuantity : int&#xa;&#xa;&#xa;+amountPaid : float&#xa;&#xa;" style="text;strokeColor=none;fillColor=none;align=left;verticalAlign=top;spacingLeft=4;spacingRight=4;overflow=hidden;rotatable=0;points=[[0,0.5],[1,0.5]];portConstraint=eastwest;" parent="ZXHYO5bJaUdAnhjfQW9v-6" vertex="1">
          <mxGeometry y="26" width="200" height="184" as="geometry" />
        </mxCell>
        <mxCell id="ZXHYO5bJaUdAnhjfQW9v-8" value="" style="line;strokeWidth=1;fillColor=none;align=left;verticalAlign=middle;spacingTop=-1;spacingLeft=3;spacingRight=3;rotatable=0;labelPosition=right;points=[];portConstraint=eastwest;" parent="ZXHYO5bJaUdAnhjfQW9v-6" vertex="1">
          <mxGeometry y="210" width="200" height="8" as="geometry" />
        </mxCell>
        <mxCell id="ZXHYO5bJaUdAnhjfQW9v-9" value="+ updateVendorCredit() : void" style="text;strokeColor=none;fillColor=none;align=left;verticalAlign=top;spacingLeft=4;spacingRight=4;overflow=hidden;rotatable=0;points=[[0,0.5],[1,0.5]];portConstraint=eastwest;" parent="ZXHYO5bJaUdAnhjfQW9v-6" vertex="1">
          <mxGeometry y="218" width="200" height="32" as="geometry" />
        </mxCell>
        <mxCell id="ZXHYO5bJaUdAnhjfQW9v-10" value="Vendor" style="swimlane;fontStyle=1;align=center;verticalAlign=top;childLayout=stackLayout;horizontal=1;startSize=26;horizontalStack=0;resizeParent=1;resizeParentMax=0;resizeLast=0;collapsible=1;marginBottom=0;" parent="1" vertex="1">
          <mxGeometry x="616" y="764" width="280" height="272" as="geometry" />
        </mxCell>
        <mxCell id="ZXHYO5bJaUdAnhjfQW9v-11" value="+vendorName : String&#xa;&#xa;+credit : float&#xa;&#xa;+products : Product[0...100]&#xa;&#xa;+orders : Order[0...100]" style="text;strokeColor=none;fillColor=none;align=left;verticalAlign=top;spacingLeft=4;spacingRight=4;overflow=hidden;rotatable=0;points=[[0,0.5],[1,0.5]];portConstraint=eastwest;" parent="ZXHYO5bJaUdAnhjfQW9v-10" vertex="1">
          <mxGeometry y="26" width="280" height="110" as="geometry" />
        </mxCell>
        <mxCell id="ZXHYO5bJaUdAnhjfQW9v-12" value="" style="line;strokeWidth=1;fillColor=none;align=left;verticalAlign=middle;spacingTop=-1;spacingLeft=3;spacingRight=3;rotatable=0;labelPosition=right;points=[];portConstraint=eastwest;" parent="ZXHYO5bJaUdAnhjfQW9v-10" vertex="1">
          <mxGeometry y="136" width="280" height="40" as="geometry" />
        </mxCell>
        <mxCell id="ZXHYO5bJaUdAnhjfQW9v-13" value="+checkDue() : float&#xa;&#xa;+ fetchProductById(id : int) : Product&#xa;&#xa;+fetchProductByName(name : String) :Â  Product" style="text;strokeColor=none;fillColor=none;align=left;verticalAlign=top;spacingLeft=4;spacingRight=4;overflow=hidden;rotatable=0;points=[[0,0.5],[1,0.5]];portConstraint=eastwest;" parent="ZXHYO5bJaUdAnhjfQW9v-10" vertex="1">
          <mxGeometry y="176" width="280" height="96" as="geometry" />
        </mxCell>
        <mxCell id="ZXHYO5bJaUdAnhjfQW9v-14" value="Customer" style="swimlane;fontStyle=1;align=center;verticalAlign=top;childLayout=stackLayout;horizontal=1;startSize=26;horizontalStack=0;resizeParent=1;resizeParentMax=0;resizeLast=0;collapsible=1;marginBottom=0;" parent="1" vertex="1">
          <mxGeometry x="1032" y="764" width="160" height="120" as="geometry" />
        </mxCell>
        <mxCell id="ZXHYO5bJaUdAnhjfQW9v-15" value="+transactionCount : int" style="text;strokeColor=none;fillColor=none;align=left;verticalAlign=top;spacingLeft=4;spacingRight=4;overflow=hidden;rotatable=0;points=[[0,0.5],[1,0.5]];portConstraint=eastwest;" parent="ZXHYO5bJaUdAnhjfQW9v-14" vertex="1">
          <mxGeometry y="26" width="160" height="26" as="geometry" />
        </mxCell>
        <mxCell id="ZXHYO5bJaUdAnhjfQW9v-16" value="" style="line;strokeWidth=1;fillColor=none;align=left;verticalAlign=middle;spacingTop=-1;spacingLeft=3;spacingRight=3;rotatable=0;labelPosition=right;points=[];portConstraint=eastwest;" parent="ZXHYO5bJaUdAnhjfQW9v-14" vertex="1">
          <mxGeometry y="52" width="160" height="8" as="geometry" />
        </mxCell>
        <mxCell id="ZXHYO5bJaUdAnhjfQW9v-17" value="+getTransactionCount() : int&#xa;&#xa;+calculateDiscount() : float" style="text;strokeColor=none;fillColor=none;align=left;verticalAlign=top;spacingLeft=4;spacingRight=4;overflow=hidden;rotatable=0;points=[[0,0.5],[1,0.5]];portConstraint=eastwest;" parent="ZXHYO5bJaUdAnhjfQW9v-14" vertex="1">
          <mxGeometry y="60" width="160" height="60" as="geometry" />
        </mxCell>
        <mxCell id="ZXHYO5bJaUdAnhjfQW9v-22" value="BusinessPartner" style="swimlane;fontStyle=1;align=center;verticalAlign=top;childLayout=stackLayout;horizontal=1;startSize=26;horizontalStack=0;resizeParent=1;resizeParentMax=0;resizeLast=0;collapsible=1;marginBottom=0;" parent="1" vertex="1">
          <mxGeometry x="792" y="384" width="176" height="184" as="geometry" />
        </mxCell>
        <mxCell id="ZXHYO5bJaUdAnhjfQW9v-23" value="+id : int&#xa;&#xa;+address : Address&#xa;&#xa;+contact : Contact" style="text;strokeColor=none;fillColor=none;align=left;verticalAlign=top;spacingLeft=4;spacingRight=4;overflow=hidden;rotatable=0;points=[[0,0.5],[1,0.5]];portConstraint=eastwest;" parent="ZXHYO5bJaUdAnhjfQW9v-22" vertex="1">
          <mxGeometry y="26" width="176" height="94" as="geometry" />
        </mxCell>
        <mxCell id="ZXHYO5bJaUdAnhjfQW9v-24" value="" style="line;strokeWidth=1;fillColor=none;align=left;verticalAlign=middle;spacingTop=-1;spacingLeft=3;spacingRight=3;rotatable=0;labelPosition=right;points=[];portConstraint=eastwest;" parent="ZXHYO5bJaUdAnhjfQW9v-22" vertex="1">
          <mxGeometry y="120" width="176" height="8" as="geometry" />
        </mxCell>
        <mxCell id="ZXHYO5bJaUdAnhjfQW9v-25" value="+getContact() : Contact&#xa;&#xa;+getAddress() : Address" style="text;strokeColor=none;fillColor=none;align=left;verticalAlign=top;spacingLeft=4;spacingRight=4;overflow=hidden;rotatable=0;points=[[0,0.5],[1,0.5]];portConstraint=eastwest;" parent="ZXHYO5bJaUdAnhjfQW9v-22" vertex="1">
          <mxGeometry y="128" width="176" height="56" as="geometry" />
        </mxCell>
        <mxCell id="ZXHYO5bJaUdAnhjfQW9v-26" value="Contact" style="swimlane;fontStyle=1;align=center;verticalAlign=top;childLayout=stackLayout;horizontal=1;startSize=26;horizontalStack=0;resizeParent=1;resizeParentMax=0;resizeLast=0;collapsible=1;marginBottom=0;" parent="1" vertex="1">
          <mxGeometry x="1128" y="376" width="284" height="208" as="geometry" />
        </mxCell>
        <mxCell id="ZXHYO5bJaUdAnhjfQW9v-27" value="+name : String&#xa;&#xa;+phone : String&#xa;&#xa;+ email : String" style="text;strokeColor=none;fillColor=none;align=left;verticalAlign=top;spacingLeft=4;spacingRight=4;overflow=hidden;rotatable=0;points=[[0,0.5],[1,0.5]];portConstraint=eastwest;" parent="ZXHYO5bJaUdAnhjfQW9v-26" vertex="1">
          <mxGeometry y="26" width="284" height="94" as="geometry" />
        </mxCell>
        <mxCell id="ZXHYO5bJaUdAnhjfQW9v-28" value="" style="line;strokeWidth=1;fillColor=none;align=left;verticalAlign=middle;spacingTop=-1;spacingLeft=3;spacingRight=3;rotatable=0;labelPosition=right;points=[];portConstraint=eastwest;" parent="ZXHYO5bJaUdAnhjfQW9v-26" vertex="1">
          <mxGeometry y="120" width="284" height="8" as="geometry" />
        </mxCell>
        <mxCell id="ZXHYO5bJaUdAnhjfQW9v-29" value="+getContactDetails() : String&#xa;&#xa;+updateContactDetails(contactDetail: String) : voidÂ " style="text;strokeColor=none;fillColor=none;align=left;verticalAlign=top;spacingLeft=4;spacingRight=4;overflow=hidden;rotatable=0;points=[[0,0.5],[1,0.5]];portConstraint=eastwest;" parent="ZXHYO5bJaUdAnhjfQW9v-26" vertex="1">
          <mxGeometry y="128" width="284" height="80" as="geometry" />
        </mxCell>
        <mxCell id="ZXHYO5bJaUdAnhjfQW9v-30" value="Address" style="swimlane;fontStyle=1;align=center;verticalAlign=top;childLayout=stackLayout;horizontal=1;startSize=26;horizontalStack=0;resizeParent=1;resizeParentMax=0;resizeLast=0;collapsible=1;marginBottom=0;" parent="1" vertex="1">
          <mxGeometry x="368" y="384" width="264" height="184" as="geometry" />
        </mxCell>
        <mxCell id="ZXHYO5bJaUdAnhjfQW9v-31" value="+street : String&#xa;&#xa;+city : String&#xa;&#xa;+state : String" style="text;strokeColor=none;fillColor=none;align=left;verticalAlign=top;spacingLeft=4;spacingRight=4;overflow=hidden;rotatable=0;points=[[0,0.5],[1,0.5]];portConstraint=eastwest;" parent="ZXHYO5bJaUdAnhjfQW9v-30" vertex="1">
          <mxGeometry y="26" width="264" height="94" as="geometry" />
        </mxCell>
        <mxCell id="ZXHYO5bJaUdAnhjfQW9v-32" value="" style="line;strokeWidth=1;fillColor=none;align=left;verticalAlign=middle;spacingTop=-1;spacingLeft=3;spacingRight=3;rotatable=0;labelPosition=right;points=[];portConstraint=eastwest;" parent="ZXHYO5bJaUdAnhjfQW9v-30" vertex="1">
          <mxGeometry y="120" width="264" height="8" as="geometry" />
        </mxCell>
        <mxCell id="ZXHYO5bJaUdAnhjfQW9v-33" value="+getAddressDetails() : String&#xa;&#xa;+updateAddressDetails() : StringÂ " style="text;strokeColor=none;fillColor=none;align=left;verticalAlign=top;spacingLeft=4;spacingRight=4;overflow=hidden;rotatable=0;points=[[0,0.5],[1,0.5]];portConstraint=eastwest;" parent="ZXHYO5bJaUdAnhjfQW9v-30" vertex="1">
          <mxGeometry y="128" width="264" height="56" as="geometry" />
        </mxCell>
        <mxCell id="ZXHYO5bJaUdAnhjfQW9v-35" value="" style="endArrow=diamondThin;endFill=0;endSize=24;html=1;" parent="1" edge="1">
          <mxGeometry width="160" relative="1" as="geometry">
            <mxPoint x="188" y="772.41" as="sourcePoint" />
            <mxPoint x="296" y="773" as="targetPoint" />
          </mxGeometry>
        </mxCell>
        <mxCell id="iXvx7aTrzvthT3rUU-vI-1" value="1" style="text;html=1;align=center;verticalAlign=middle;resizable=0;points=[];autosize=1;strokeColor=none;" parent="1" vertex="1">
          <mxGeometry x="188" y="750" width="16" height="24" as="geometry" />
        </mxCell>
        <mxCell id="iXvx7aTrzvthT3rUU-vI-2" value="1" style="text;html=1;align=center;verticalAlign=middle;resizable=0;points=[];autosize=1;strokeColor=none;" parent="1" vertex="1">
          <mxGeometry x="276" y="740" width="16" height="24" as="geometry" />
        </mxCell>
        <mxCell id="iXvx7aTrzvthT3rUU-vI-3" value="" style="line;strokeWidth=1;fillColor=none;align=left;verticalAlign=middle;spacingTop=-1;spacingLeft=3;spacingRight=3;rotatable=0;labelPosition=right;points=[];portConstraint=eastwest;" parent="1" vertex="1">
          <mxGeometry x="496" y="800" width="120" height="8" as="geometry" />
        </mxCell>
        <mxCell id="iXvx7aTrzvthT3rUU-vI-4" value="*" style="text;html=1;align=center;verticalAlign=middle;resizable=0;points=[];autosize=1;strokeColor=none;" parent="1" vertex="1">
          <mxGeometry x="496" y="782" width="16" height="24" as="geometry" />
        </mxCell>
        <mxCell id="iXvx7aTrzvthT3rUU-vI-5" value="1" style="text;html=1;align=center;verticalAlign=middle;resizable=0;points=[];autosize=1;strokeColor=none;" parent="1" vertex="1">
          <mxGeometry x="596" y="782" width="16" height="24" as="geometry" />
        </mxCell>
        <mxCell id="iXvx7aTrzvthT3rUU-vI-6" value="" style="endArrow=diamondThin;endFill=0;endSize=24;html=1;" parent="1" source="ZXHYO5bJaUdAnhjfQW9v-4" edge="1">
          <mxGeometry width="160" relative="1" as="geometry">
            <mxPoint x="456" y="928" as="sourcePoint" />
            <mxPoint x="616" y="968" as="targetPoint" />
          </mxGeometry>
        </mxCell>
        <mxCell id="iXvx7aTrzvthT3rUU-vI-7" value="*" style="text;html=1;align=center;verticalAlign=middle;resizable=0;points=[];autosize=1;strokeColor=none;" parent="1" vertex="1">
          <mxGeometry x="188" y="950" width="16" height="24" as="geometry" />
        </mxCell>
        <mxCell id="iXvx7aTrzvthT3rUU-vI-8" value="*" style="text;html=1;align=center;verticalAlign=middle;resizable=0;points=[];autosize=1;strokeColor=none;" parent="1" vertex="1">
          <mxGeometry x="596" y="944" width="16" height="24" as="geometry" />
        </mxCell>
        <mxCell id="iXvx7aTrzvthT3rUU-vI-23" value="" style="endArrow=block;dashed=1;endFill=0;endSize=12;html=1;exitX=0.5;exitY=0;exitDx=0;exitDy=0;entryX=0.473;entryY=1.036;entryDx=0;entryDy=0;entryPerimeter=0;" parent="1" source="ZXHYO5bJaUdAnhjfQW9v-10" target="ZXHYO5bJaUdAnhjfQW9v-25" edge="1">
          <mxGeometry width="160" relative="1" as="geometry">
            <mxPoint x="744" y="654" as="sourcePoint" />
            <mxPoint x="904" y="654" as="targetPoint" />
          </mxGeometry>
        </mxCell>
        <mxCell id="iXvx7aTrzvthT3rUU-vI-24" value="" style="endArrow=block;dashed=1;endFill=0;endSize=12;html=1;exitX=0.5;exitY=0;exitDx=0;exitDy=0;" parent="1" source="ZXHYO5bJaUdAnhjfQW9v-14" edge="1">
          <mxGeometry width="160" relative="1" as="geometry">
            <mxPoint x="944" y="648" as="sourcePoint" />
            <mxPoint x="912" y="568" as="targetPoint" />
          </mxGeometry>
        </mxCell>
        <mxCell id="iXvx7aTrzvthT3rUU-vI-31" value="" style="endArrow=diamondThin;endFill=1;endSize=24;html=1;" parent="1" edge="1">
          <mxGeometry width="160" relative="1" as="geometry">
            <mxPoint x="632" y="472" as="sourcePoint" />
            <mxPoint x="792" y="472" as="targetPoint" />
          </mxGeometry>
        </mxCell>
        <mxCell id="iXvx7aTrzvthT3rUU-vI-32" value="" style="endArrow=diamondThin;endFill=1;endSize=24;html=1;" parent="1" edge="1">
          <mxGeometry width="160" relative="1" as="geometry">
            <mxPoint x="968" y="475" as="sourcePoint" />
            <mxPoint x="1128" y="475" as="targetPoint" />
          </mxGeometry>
        </mxCell>
        <mxCell id="iXvx7aTrzvthT3rUU-vI-33" value="1" style="text;html=1;align=center;verticalAlign=middle;resizable=0;points=[];autosize=1;strokeColor=none;" parent="1" vertex="1">
          <mxGeometry x="1100" y="446" width="16" height="24" as="geometry" />
        </mxCell>
        <mxCell id="iXvx7aTrzvthT3rUU-vI-34" value="1" style="text;html=1;align=center;verticalAlign=middle;resizable=0;points=[];autosize=1;strokeColor=none;" parent="1" vertex="1">
          <mxGeometry x="964" y="454" width="16" height="24" as="geometry" />
        </mxCell>
        <mxCell id="iXvx7aTrzvthT3rUU-vI-35" value="1" style="text;html=1;align=center;verticalAlign=middle;resizable=0;points=[];autosize=1;strokeColor=none;" parent="1" vertex="1">
          <mxGeometry x="628" y="454" width="16" height="24" as="geometry" />
        </mxCell>
        <mxCell id="iXvx7aTrzvthT3rUU-vI-36" value="1" style="text;html=1;align=center;verticalAlign=middle;resizable=0;points=[];autosize=1;strokeColor=none;" parent="1" vertex="1">
          <mxGeometry x="772" y="438" width="16" height="24" as="geometry" />
        </mxCell>
      </root>
    </mxGraphModel>
  </diagram>
  <diagram id="Rirb0kfDLXPLO5EBSK7l" name="Page-2">
    <mxGraphModel dx="814" dy="482" grid="1" gridSize="10" guides="1" tooltips="1" connect="1" arrows="1" fold="1" page="1" pageScale="1" pageWidth="850" pageHeight="1100" math="0" shadow="0">
      <root>
        <mxCell id="UPZgUd-XMAm5PIorV5Hz-0" />
        <mxCell id="UPZgUd-XMAm5PIorV5Hz-1" parent="UPZgUd-XMAm5PIorV5Hz-0" />
      </root>
    </mxGraphModel>
  </diagram>
</mxfile>
